<svg width="38" height="38" viewBox="0 0 38 38" fill="none" xmlns="http://www.w3.org/2000/svg">
<circle cx="19" cy="19" r="19" fill="#28BD42"/>
<path d="M24.9552 17.815C26.4672 17.815 27.6974 16.5848 27.6974 15.0727C27.6974 13.5606 26.4672 12.3304 24.9552 12.3304C23.4431 12.3304 22.2129 13.5606 22.2129 15.0727C22.2129 16.5848 23.4431 17.815 24.9552 17.815Z" fill="#FCFCFD"/>
<path d="M13.045 17.815C14.5571 17.815 15.7873 16.5848 15.7873 15.0727C15.7873 13.5606 14.5571 12.3304 13.045 12.3304C11.5329 12.3304 10.3027 13.5606 10.3027 15.0727C10.3027 16.5848 11.533 17.815 13.045 17.815Z" fill="#FCFCFD"/>
<path d="M19.001 27.4923C15.7203 27.4923 12.7188 25.6434 11.2062 22.79C10.9022 22.2165 10.2332 21.8997 9.6242 22.1242V22.1242C9.01519 22.3487 8.69805 23.0283 8.98578 23.6102C10.8505 27.381 14.7397 29.8428 19.001 29.8428C23.2623 29.8428 27.1515 27.381 29.0163 23.6102C29.304 23.0283 28.9869 22.3487 28.3779 22.1242V22.1242C27.7688 21.8997 27.0998 22.2165 26.7958 22.79C25.2832 25.6434 22.2817 27.4923 19.001 27.4923Z" fill="#FCFCFD"/>
</svg>
